<svg width="20" height="18" viewBox="0 0 20 18" fill="none" xmlns="http://www.w3.org/2000/svg">
<path d="M18.4893 7.83334H4.52676L10.6268 2.14001C11.1143 1.68501 11.1143 0.938345 10.6268 0.483345C10.1393 0.0283451 9.35176 0.0283451 8.86426 0.483345L0.626757 8.17168C0.139256 8.62668 0.139256 9.36168 0.626757 9.81668L8.85176 17.5167C9.0853 17.7351 9.40236 17.8579 9.73301 17.8579C10.0637 17.8579 10.3807 17.7351 10.6143 17.5167C11.1018 17.0617 11.1018 16.3267 10.6143 15.8717L4.52676 10.1667H18.4893C19.1768 10.1667 19.7393 9.64168 19.7393 9.00001C19.7393 8.35834 19.1768 7.83334 18.4893 7.83334Z" fill="#1B1B1B"/>
</svg>
