<svg width="27" height="22" viewBox="0 0 27 22" fill="none" xmlns="http://www.w3.org/2000/svg">
<path d="M1.89827 12.5069H20.9804L12.6437 19.4541C11.9774 20.0094 11.9774 20.9205 12.6437 21.4757C13.3099 22.0309 14.3862 22.0309 15.0524 21.4757L26.3104 12.0941C26.9766 11.5389 26.9766 10.642 26.3104 10.0868L15.0695 0.690952C14.7504 0.424377 14.317 0.274567 13.8652 0.274567C13.4133 0.274567 12.9799 0.424377 12.6608 0.690952C11.9945 1.24616 11.9945 2.14304 12.6608 2.69824L20.9804 9.6597H1.89827C0.958691 9.6597 0.189941 10.3003 0.189941 11.0833C0.189941 11.8663 0.958691 12.5069 1.89827 12.5069Z" fill="white"/>
</svg>
